<mxfile host="app.diagrams.net" agent="Mozilla/5.0 (Windows NT 10.0; Win64; x64) AppleWebKit/537.36 (KHTML, like Gecko) Chrome/131.0.0.0 Safari/537.36" version="25.0.3">
  <diagram name="Página-1" id="TbEv03GInDOR_TKwvuTD">
    <mxGraphModel dx="1434" dy="780" grid="1" gridSize="10" guides="1" tooltips="1" connect="1" arrows="1" fold="1" page="1" pageScale="1" pageWidth="827" pageHeight="1169" math="0" shadow="0">
      <root>
        <mxCell id="0" />
        <mxCell id="1" parent="0" />
        <mxCell id="c1xDS-bG-x7jauQN-Ohu-10" value="BPMN Cafetería HCC" style="swimlane;html=1;childLayout=stackLayout;resizeParent=1;resizeParentMax=0;startSize=20;whiteSpace=wrap;" parent="1" vertex="1">
          <mxGeometry x="40" y="40" width="917" height="880" as="geometry">
            <mxRectangle x="40" y="40" width="60" height="30" as="alternateBounds" />
          </mxGeometry>
        </mxCell>
        <mxCell id="CMSIOsUlbhgRY1fr74lB-1" value="Cliente" style="swimlane;html=1;startSize=20;" vertex="1" parent="c1xDS-bG-x7jauQN-Ohu-10">
          <mxGeometry y="20" width="180" height="860" as="geometry">
            <mxRectangle y="20" width="40" height="460" as="alternateBounds" />
          </mxGeometry>
        </mxCell>
        <mxCell id="CMSIOsUlbhgRY1fr74lB-3" value="" style="points=[[0.145,0.145,0],[0.5,0,0],[0.855,0.145,0],[1,0.5,0],[0.855,0.855,0],[0.5,1,0],[0.145,0.855,0],[0,0.5,0]];shape=mxgraph.bpmn.event;html=1;verticalLabelPosition=bottom;labelBackgroundColor=#ffffff;verticalAlign=top;align=center;perimeter=ellipsePerimeter;outlineConnect=0;aspect=fixed;outline=standard;symbol=general;" vertex="1" parent="CMSIOsUlbhgRY1fr74lB-1">
          <mxGeometry x="10" y="42.5" width="17.5" height="17.5" as="geometry" />
        </mxCell>
        <mxCell id="CMSIOsUlbhgRY1fr74lB-11" value="Solicitar servicio" style="points=[[0.25,0,0],[0.5,0,0],[0.75,0,0],[1,0.25,0],[1,0.5,0],[1,0.75,0],[0.75,1,0],[0.5,1,0],[0.25,1,0],[0,0.75,0],[0,0.5,0],[0,0.25,0]];shape=mxgraph.bpmn.task;whiteSpace=wrap;rectStyle=rounded;size=10;html=1;container=1;expand=0;collapsible=0;taskMarker=abstract;fontSize=9;" vertex="1" parent="CMSIOsUlbhgRY1fr74lB-1">
          <mxGeometry x="65" y="38.88" width="80" height="24.75" as="geometry" />
        </mxCell>
        <mxCell id="CMSIOsUlbhgRY1fr74lB-12" style="edgeStyle=orthogonalEdgeStyle;rounded=0;orthogonalLoop=1;jettySize=auto;html=1;entryX=0;entryY=0.5;entryDx=0;entryDy=0;entryPerimeter=0;" edge="1" parent="CMSIOsUlbhgRY1fr74lB-1" source="CMSIOsUlbhgRY1fr74lB-3" target="CMSIOsUlbhgRY1fr74lB-11">
          <mxGeometry relative="1" as="geometry" />
        </mxCell>
        <mxCell id="c1xDS-bG-x7jauQN-Ohu-11" value="Recepción" style="swimlane;html=1;startSize=20;" parent="c1xDS-bG-x7jauQN-Ohu-10" vertex="1">
          <mxGeometry x="180" y="20" width="260" height="860" as="geometry">
            <mxRectangle y="20" width="40" height="460" as="alternateBounds" />
          </mxGeometry>
        </mxCell>
        <mxCell id="c1xDS-bG-x7jauQN-Ohu-21" value="¿Lugar Disponible?" style="points=[[0.25,0.25,0],[0.5,0,0],[0.75,0.25,0],[1,0.5,0],[0.75,0.75,0],[0.5,1,0],[0.25,0.75,0],[0,0.5,0]];shape=mxgraph.bpmn.gateway2;html=1;verticalLabelPosition=top;labelBackgroundColor=#ffffff;verticalAlign=bottom;align=center;perimeter=rhombusPerimeter;outlineConnect=0;outline=standard;symbol=conditional;labelPosition=center;fontSize=8;" parent="c1xDS-bG-x7jauQN-Ohu-11" vertex="1">
          <mxGeometry x="55" y="33.75" width="40" height="35" as="geometry" />
        </mxCell>
        <mxCell id="c1xDS-bG-x7jauQN-Ohu-22" value="¿Desea esperar?" style="points=[[0.25,0.25,0],[0.5,0,0],[0.75,0.25,0],[1,0.5,0],[0.75,0.75,0],[0.5,1,0],[0.25,0.75,0],[0,0.5,0]];shape=mxgraph.bpmn.gateway2;html=1;verticalLabelPosition=middle;labelBackgroundColor=#ffffff;verticalAlign=middle;align=center;perimeter=rhombusPerimeter;outlineConnect=0;outline=standard;symbol=conditional;fontSize=8;labelPosition=center;" parent="c1xDS-bG-x7jauQN-Ohu-11" vertex="1">
          <mxGeometry x="82.5" y="140" width="45" height="50" as="geometry" />
        </mxCell>
        <mxCell id="CMSIOsUlbhgRY1fr74lB-15" value="No" style="edgeStyle=orthogonalEdgeStyle;rounded=0;orthogonalLoop=1;jettySize=auto;html=1;entryX=0.5;entryY=0;entryDx=0;entryDy=0;entryPerimeter=0;" edge="1" parent="c1xDS-bG-x7jauQN-Ohu-11" source="c1xDS-bG-x7jauQN-Ohu-21" target="c1xDS-bG-x7jauQN-Ohu-22">
          <mxGeometry relative="1" as="geometry" />
        </mxCell>
        <mxCell id="CMSIOsUlbhgRY1fr74lB-16" value="" style="points=[[0.145,0.145,0],[0.5,0,0],[0.855,0.145,0],[1,0.5,0],[0.855,0.855,0],[0.5,1,0],[0.145,0.855,0],[0,0.5,0]];shape=mxgraph.bpmn.event;html=1;verticalLabelPosition=bottom;labelBackgroundColor=#ffffff;verticalAlign=top;align=center;perimeter=ellipsePerimeter;outlineConnect=0;aspect=fixed;outline=end;symbol=terminate;" vertex="1" parent="c1xDS-bG-x7jauQN-Ohu-11">
          <mxGeometry x="95" y="250" width="20" height="20" as="geometry" />
        </mxCell>
        <mxCell id="CMSIOsUlbhgRY1fr74lB-17" value="No" style="edgeStyle=orthogonalEdgeStyle;rounded=0;orthogonalLoop=1;jettySize=auto;html=1;entryX=0.5;entryY=0;entryDx=0;entryDy=0;entryPerimeter=0;" edge="1" parent="c1xDS-bG-x7jauQN-Ohu-11" source="c1xDS-bG-x7jauQN-Ohu-22" target="CMSIOsUlbhgRY1fr74lB-16">
          <mxGeometry relative="1" as="geometry" />
        </mxCell>
        <mxCell id="CMSIOsUlbhgRY1fr74lB-19" value="Asignar lugar" style="points=[[0.25,0,0],[0.5,0,0],[0.75,0,0],[1,0.25,0],[1,0.5,0],[1,0.75,0],[0.75,1,0],[0.5,1,0],[0.25,1,0],[0,0.75,0],[0,0.5,0],[0,0.25,0]];shape=mxgraph.bpmn.task;whiteSpace=wrap;rectStyle=rounded;size=10;html=1;container=1;expand=0;collapsible=0;taskMarker=abstract;fontSize=9;" vertex="1" parent="c1xDS-bG-x7jauQN-Ohu-11">
          <mxGeometry x="180" y="38.25" width="70" height="26" as="geometry" />
        </mxCell>
        <mxCell id="CMSIOsUlbhgRY1fr74lB-20" value="Si" style="edgeStyle=orthogonalEdgeStyle;rounded=0;orthogonalLoop=1;jettySize=auto;html=1;entryX=0;entryY=0.5;entryDx=0;entryDy=0;entryPerimeter=0;" edge="1" parent="c1xDS-bG-x7jauQN-Ohu-11" source="c1xDS-bG-x7jauQN-Ohu-21" target="CMSIOsUlbhgRY1fr74lB-19">
          <mxGeometry relative="1" as="geometry" />
        </mxCell>
        <mxCell id="c1xDS-bG-x7jauQN-Ohu-12" value="Atención" style="swimlane;html=1;startSize=20;" parent="c1xDS-bG-x7jauQN-Ohu-10" vertex="1">
          <mxGeometry x="440" y="20" width="157" height="860" as="geometry" />
        </mxCell>
        <mxCell id="c1xDS-bG-x7jauQN-Ohu-32" value="No" style="edgeStyle=orthogonalEdgeStyle;rounded=0;orthogonalLoop=1;jettySize=auto;html=1;" parent="c1xDS-bG-x7jauQN-Ohu-12" source="c1xDS-bG-x7jauQN-Ohu-26" edge="1">
          <mxGeometry relative="1" as="geometry">
            <mxPoint x="50" y="110" as="targetPoint" />
            <Array as="points">
              <mxPoint x="11" y="178" />
            </Array>
          </mxGeometry>
        </mxCell>
        <mxCell id="c1xDS-bG-x7jauQN-Ohu-26" value="¿Orden lista?" style="points=[[0.25,0.25,0],[0.5,0,0],[0.75,0.25,0],[1,0.5,0],[0.75,0.75,0],[0.5,1,0],[0.25,0.75,0],[0,0.5,0]];shape=mxgraph.bpmn.gateway2;html=1;verticalLabelPosition=middle;labelBackgroundColor=#ffffff;verticalAlign=middle;align=center;perimeter=rhombusPerimeter;outlineConnect=0;outline=standard;symbol=conditional;labelPosition=center;fontSize=9;" parent="c1xDS-bG-x7jauQN-Ohu-12" vertex="1">
          <mxGeometry x="50" y="160" width="40" height="35" as="geometry" />
        </mxCell>
        <mxCell id="c1xDS-bG-x7jauQN-Ohu-27" value="Esperar 5 min" style="points=[[0.145,0.145,0],[0.5,0,0],[0.855,0.145,0],[1,0.5,0],[0.855,0.855,0],[0.5,1,0],[0.145,0.855,0],[0,0.5,0]];shape=mxgraph.bpmn.event;html=1;verticalLabelPosition=middle;labelBackgroundColor=#ffffff;verticalAlign=middle;align=center;perimeter=ellipsePerimeter;outlineConnect=0;aspect=fixed;outline=eventNonint;symbol=timer;labelPosition=center;fontSize=8;" parent="c1xDS-bG-x7jauQN-Ohu-12" vertex="1">
          <mxGeometry x="50" y="100" width="40" height="40" as="geometry" />
        </mxCell>
        <mxCell id="c1xDS-bG-x7jauQN-Ohu-28" style="edgeStyle=orthogonalEdgeStyle;rounded=0;orthogonalLoop=1;jettySize=auto;html=1;entryX=0.5;entryY=0;entryDx=0;entryDy=0;entryPerimeter=0;" parent="c1xDS-bG-x7jauQN-Ohu-12" source="c1xDS-bG-x7jauQN-Ohu-27" target="c1xDS-bG-x7jauQN-Ohu-26" edge="1">
          <mxGeometry relative="1" as="geometry" />
        </mxCell>
        <mxCell id="CMSIOsUlbhgRY1fr74lB-21" value="Entregar menú" style="points=[[0.25,0,0],[0.5,0,0],[0.75,0,0],[1,0.25,0],[1,0.5,0],[1,0.75,0],[0.75,1,0],[0.5,1,0],[0.25,1,0],[0,0.75,0],[0,0.5,0],[0,0.25,0]];shape=mxgraph.bpmn.task;whiteSpace=wrap;rectStyle=rounded;size=10;html=1;container=1;expand=0;collapsible=0;taskMarker=abstract;fontSize=9;" vertex="1" parent="c1xDS-bG-x7jauQN-Ohu-12">
          <mxGeometry x="33.5" y="38.25" width="73" height="26" as="geometry" />
        </mxCell>
        <mxCell id="CMSIOsUlbhgRY1fr74lB-23" style="edgeStyle=orthogonalEdgeStyle;rounded=0;orthogonalLoop=1;jettySize=auto;html=1;entryX=0.5;entryY=0;entryDx=0;entryDy=0;entryPerimeter=0;" edge="1" parent="c1xDS-bG-x7jauQN-Ohu-12" source="CMSIOsUlbhgRY1fr74lB-21" target="c1xDS-bG-x7jauQN-Ohu-27">
          <mxGeometry relative="1" as="geometry" />
        </mxCell>
        <mxCell id="CMSIOsUlbhgRY1fr74lB-24" value="Generar Orden" style="points=[[0.25,0,0],[0.5,0,0],[0.75,0,0],[1,0.25,0],[1,0.5,0],[1,0.75,0],[0.75,1,0],[0.5,1,0],[0.25,1,0],[0,0.75,0],[0,0.5,0],[0,0.25,0]];shape=mxgraph.bpmn.task;whiteSpace=wrap;rectStyle=rounded;size=10;html=1;container=1;expand=0;collapsible=0;taskMarker=abstract;fontSize=9;" vertex="1" parent="c1xDS-bG-x7jauQN-Ohu-12">
          <mxGeometry x="32" y="240" width="76" height="20" as="geometry" />
        </mxCell>
        <mxCell id="CMSIOsUlbhgRY1fr74lB-25" value="Si" style="edgeStyle=orthogonalEdgeStyle;rounded=0;orthogonalLoop=1;jettySize=auto;html=1;entryX=0.5;entryY=0;entryDx=0;entryDy=0;entryPerimeter=0;" edge="1" parent="c1xDS-bG-x7jauQN-Ohu-12" source="c1xDS-bG-x7jauQN-Ohu-26" target="CMSIOsUlbhgRY1fr74lB-24">
          <mxGeometry relative="1" as="geometry" />
        </mxCell>
        <mxCell id="CMSIOsUlbhgRY1fr74lB-26" value="Orden Generada" style="points=[[0.145,0.145,0],[0.5,0,0],[0.855,0.145,0],[1,0.5,0],[0.855,0.855,0],[0.5,1,0],[0.145,0.855,0],[0,0.5,0]];shape=mxgraph.bpmn.event;html=1;verticalLabelPosition=bottom;labelBackgroundColor=#ffffff;verticalAlign=top;align=center;perimeter=ellipsePerimeter;outlineConnect=0;aspect=fixed;outline=end;symbol=signal;fontSize=9;" vertex="1" parent="c1xDS-bG-x7jauQN-Ohu-12">
          <mxGeometry x="60" y="300" width="20" height="20" as="geometry" />
        </mxCell>
        <mxCell id="CMSIOsUlbhgRY1fr74lB-27" style="edgeStyle=orthogonalEdgeStyle;rounded=0;orthogonalLoop=1;jettySize=auto;html=1;entryX=0.5;entryY=0;entryDx=0;entryDy=0;entryPerimeter=0;" edge="1" parent="c1xDS-bG-x7jauQN-Ohu-12" source="CMSIOsUlbhgRY1fr74lB-24" target="CMSIOsUlbhgRY1fr74lB-26">
          <mxGeometry relative="1" as="geometry" />
        </mxCell>
        <mxCell id="CMSIOsUlbhgRY1fr74lB-32" value="Orden lista" style="points=[[0.145,0.145,0],[0.5,0,0],[0.855,0.145,0],[1,0.5,0],[0.855,0.855,0],[0.5,1,0],[0.145,0.855,0],[0,0.5,0]];shape=mxgraph.bpmn.event;html=1;verticalLabelPosition=top;labelBackgroundColor=#ffffff;verticalAlign=bottom;align=center;perimeter=ellipsePerimeter;outlineConnect=0;aspect=fixed;outline=end;symbol=message;fontSize=9;labelPosition=center;" vertex="1" parent="c1xDS-bG-x7jauQN-Ohu-12">
          <mxGeometry x="65" y="385" width="20" height="20" as="geometry" />
        </mxCell>
        <mxCell id="CMSIOsUlbhgRY1fr74lB-35" value="Llevar Orden" style="points=[[0.25,0,0],[0.5,0,0],[0.75,0,0],[1,0.25,0],[1,0.5,0],[1,0.75,0],[0.75,1,0],[0.5,1,0],[0.25,1,0],[0,0.75,0],[0,0.5,0],[0,0.25,0]];shape=mxgraph.bpmn.task;whiteSpace=wrap;rectStyle=rounded;size=10;html=1;container=1;expand=0;collapsible=0;taskMarker=abstract;fontSize=9;" vertex="1" parent="c1xDS-bG-x7jauQN-Ohu-12">
          <mxGeometry x="34" y="445" width="82" height="25" as="geometry" />
        </mxCell>
        <mxCell id="CMSIOsUlbhgRY1fr74lB-36" style="edgeStyle=orthogonalEdgeStyle;rounded=0;orthogonalLoop=1;jettySize=auto;html=1;entryX=0.5;entryY=0;entryDx=0;entryDy=0;entryPerimeter=0;" edge="1" parent="c1xDS-bG-x7jauQN-Ohu-12" source="CMSIOsUlbhgRY1fr74lB-32" target="CMSIOsUlbhgRY1fr74lB-35">
          <mxGeometry relative="1" as="geometry" />
        </mxCell>
        <mxCell id="CMSIOsUlbhgRY1fr74lB-37" value="Esperar 20 min" style="points=[[0.145,0.145,0],[0.5,0,0],[0.855,0.145,0],[1,0.5,0],[0.855,0.855,0],[0.5,1,0],[0.145,0.855,0],[0,0.5,0]];shape=mxgraph.bpmn.event;html=1;verticalLabelPosition=middle;labelBackgroundColor=#ffffff;verticalAlign=middle;align=center;perimeter=ellipsePerimeter;outlineConnect=0;aspect=fixed;outline=eventNonint;symbol=timer;fontSize=9;labelPosition=center;" vertex="1" parent="c1xDS-bG-x7jauQN-Ohu-12">
          <mxGeometry x="60" y="495" width="30" height="30" as="geometry" />
        </mxCell>
        <mxCell id="CMSIOsUlbhgRY1fr74lB-38" style="edgeStyle=orthogonalEdgeStyle;rounded=0;orthogonalLoop=1;jettySize=auto;html=1;entryX=0.5;entryY=0;entryDx=0;entryDy=0;entryPerimeter=0;" edge="1" parent="c1xDS-bG-x7jauQN-Ohu-12" source="CMSIOsUlbhgRY1fr74lB-35" target="CMSIOsUlbhgRY1fr74lB-37">
          <mxGeometry relative="1" as="geometry" />
        </mxCell>
        <mxCell id="CMSIOsUlbhgRY1fr74lB-41" value="Si" style="edgeStyle=orthogonalEdgeStyle;rounded=0;orthogonalLoop=1;jettySize=auto;html=1;entryX=0;entryY=0.5;entryDx=0;entryDy=0;entryPerimeter=0;" edge="1" parent="c1xDS-bG-x7jauQN-Ohu-12" source="CMSIOsUlbhgRY1fr74lB-39" target="CMSIOsUlbhgRY1fr74lB-24">
          <mxGeometry relative="1" as="geometry">
            <mxPoint x="19.999999999999773" y="260" as="targetPoint" />
            <Array as="points">
              <mxPoint x="12" y="580" />
              <mxPoint x="12" y="250" />
            </Array>
          </mxGeometry>
        </mxCell>
        <mxCell id="CMSIOsUlbhgRY1fr74lB-39" value="¿Algo más?" style="points=[[0.25,0.25,0],[0.5,0,0],[0.75,0.25,0],[1,0.5,0],[0.75,0.75,0],[0.5,1,0],[0.25,0.75,0],[0,0.5,0]];shape=mxgraph.bpmn.gateway2;html=1;verticalLabelPosition=middle;labelBackgroundColor=#ffffff;verticalAlign=middle;align=center;perimeter=rhombusPerimeter;outlineConnect=0;outline=none;symbol=none;fontSize=9;labelPosition=center;" vertex="1" parent="c1xDS-bG-x7jauQN-Ohu-12">
          <mxGeometry x="62" y="560" width="26" height="40" as="geometry" />
        </mxCell>
        <mxCell id="CMSIOsUlbhgRY1fr74lB-40" style="edgeStyle=orthogonalEdgeStyle;rounded=0;orthogonalLoop=1;jettySize=auto;html=1;entryX=0.5;entryY=0;entryDx=0;entryDy=0;entryPerimeter=0;" edge="1" parent="c1xDS-bG-x7jauQN-Ohu-12" source="CMSIOsUlbhgRY1fr74lB-37" target="CMSIOsUlbhgRY1fr74lB-39">
          <mxGeometry relative="1" as="geometry" />
        </mxCell>
        <mxCell id="CMSIOsUlbhgRY1fr74lB-49" value="" style="points=[[0.145,0.145,0],[0.5,0,0],[0.855,0.145,0],[1,0.5,0],[0.855,0.855,0],[0.5,1,0],[0.145,0.855,0],[0,0.5,0]];shape=mxgraph.bpmn.event;html=1;verticalLabelPosition=bottom;labelBackgroundColor=#ffffff;verticalAlign=top;align=center;perimeter=ellipsePerimeter;outlineConnect=0;aspect=fixed;outline=end;symbol=terminate2;" vertex="1" parent="c1xDS-bG-x7jauQN-Ohu-12">
          <mxGeometry x="65" y="650" width="20" height="20" as="geometry" />
        </mxCell>
        <mxCell id="CMSIOsUlbhgRY1fr74lB-50" value="No" style="edgeStyle=orthogonalEdgeStyle;rounded=0;orthogonalLoop=1;jettySize=auto;html=1;entryX=0.5;entryY=0;entryDx=0;entryDy=0;entryPerimeter=0;" edge="1" parent="c1xDS-bG-x7jauQN-Ohu-12" source="CMSIOsUlbhgRY1fr74lB-39" target="CMSIOsUlbhgRY1fr74lB-49">
          <mxGeometry relative="1" as="geometry" />
        </mxCell>
        <mxCell id="CMSIOsUlbhgRY1fr74lB-51" value="Limpiar mesa" style="points=[[0.25,0,0],[0.5,0,0],[0.75,0,0],[1,0.25,0],[1,0.5,0],[1,0.75,0],[0.75,1,0],[0.5,1,0],[0.25,1,0],[0,0.75,0],[0,0.5,0],[0,0.25,0]];shape=mxgraph.bpmn.task;whiteSpace=wrap;rectStyle=rounded;size=10;html=1;container=1;expand=0;collapsible=0;taskMarker=abstract;fontSize=9;" vertex="1" parent="c1xDS-bG-x7jauQN-Ohu-12">
          <mxGeometry x="39.5" y="727.5" width="78" height="25" as="geometry" />
        </mxCell>
        <mxCell id="CMSIOsUlbhgRY1fr74lB-53" value="" style="points=[[0.145,0.145,0],[0.5,0,0],[0.855,0.145,0],[1,0.5,0],[0.855,0.855,0],[0.5,1,0],[0.145,0.855,0],[0,0.5,0]];shape=mxgraph.bpmn.event;html=1;verticalLabelPosition=bottom;labelBackgroundColor=#ffffff;verticalAlign=top;align=center;perimeter=ellipsePerimeter;outlineConnect=0;aspect=fixed;outline=end;symbol=terminate;" vertex="1" parent="c1xDS-bG-x7jauQN-Ohu-12">
          <mxGeometry x="68.5" y="800" width="20" height="20" as="geometry" />
        </mxCell>
        <mxCell id="CMSIOsUlbhgRY1fr74lB-54" style="edgeStyle=orthogonalEdgeStyle;rounded=0;orthogonalLoop=1;jettySize=auto;html=1;entryX=0.5;entryY=0;entryDx=0;entryDy=0;entryPerimeter=0;" edge="1" parent="c1xDS-bG-x7jauQN-Ohu-12" source="CMSIOsUlbhgRY1fr74lB-51" target="CMSIOsUlbhgRY1fr74lB-53">
          <mxGeometry relative="1" as="geometry" />
        </mxCell>
        <mxCell id="c1xDS-bG-x7jauQN-Ohu-13" value="Preparación" style="swimlane;html=1;startSize=20;" parent="c1xDS-bG-x7jauQN-Ohu-10" vertex="1">
          <mxGeometry x="597" y="20" width="160" height="860" as="geometry">
            <mxRectangle x="240" y="20" width="40" height="460" as="alternateBounds" />
          </mxGeometry>
        </mxCell>
        <mxCell id="c1xDS-bG-x7jauQN-Ohu-34" value="Reunir Insumos" style="points=[[0.25,0,0],[0.5,0,0],[0.75,0,0],[1,0.25,0],[1,0.5,0],[1,0.75,0],[0.75,1,0],[0.5,1,0],[0.25,1,0],[0,0.75,0],[0,0.5,0],[0,0.25,0]];shape=mxgraph.bpmn.task;whiteSpace=wrap;rectStyle=rounded;size=10;html=1;container=1;expand=0;collapsible=0;taskMarker=abstract;fontSize=8;" parent="c1xDS-bG-x7jauQN-Ohu-13" vertex="1">
          <mxGeometry x="35" y="80" width="75" height="20" as="geometry" />
        </mxCell>
        <mxCell id="c1xDS-bG-x7jauQN-Ohu-37" value="¿Orden lista?" style="points=[[0.25,0.25,0],[0.5,0,0],[0.75,0.25,0],[1,0.5,0],[0.75,0.75,0],[0.5,1,0],[0.25,0.75,0],[0,0.5,0]];shape=mxgraph.bpmn.gateway2;html=1;verticalLabelPosition=bottom;labelBackgroundColor=#ffffff;verticalAlign=top;align=center;perimeter=rhombusPerimeter;outlineConnect=0;outline=standard;symbol=conditional;labelPosition=center;fontSize=9;" parent="c1xDS-bG-x7jauQN-Ohu-13" vertex="1">
          <mxGeometry x="55" y="380" width="35" height="30" as="geometry" />
        </mxCell>
        <mxCell id="CMSIOsUlbhgRY1fr74lB-28" value="Preparar Orden" style="points=[[0.145,0.145,0],[0.5,0,0],[0.855,0.145,0],[1,0.5,0],[0.855,0.855,0],[0.5,1,0],[0.145,0.855,0],[0,0.5,0]];shape=mxgraph.bpmn.event;html=1;verticalLabelPosition=top;labelBackgroundColor=#ffffff;verticalAlign=bottom;align=center;perimeter=ellipsePerimeter;outlineConnect=0;aspect=fixed;outline=standard;symbol=signal;fontSize=9;labelPosition=center;" vertex="1" parent="c1xDS-bG-x7jauQN-Ohu-13">
          <mxGeometry x="62.5" y="40" width="20" height="20" as="geometry" />
        </mxCell>
        <mxCell id="CMSIOsUlbhgRY1fr74lB-29" value="Preparar Orden" style="points=[[0.25,0,0],[0.5,0,0],[0.75,0,0],[1,0.25,0],[1,0.5,0],[1,0.75,0],[0.75,1,0],[0.5,1,0],[0.25,1,0],[0,0.75,0],[0,0.5,0],[0,0.25,0]];shape=mxgraph.bpmn.task;whiteSpace=wrap;rectStyle=rounded;size=10;html=1;container=1;expand=0;collapsible=0;taskMarker=abstract;fontSize=8;" vertex="1" parent="c1xDS-bG-x7jauQN-Ohu-13">
          <mxGeometry x="35" y="210" width="75" height="20" as="geometry" />
        </mxCell>
        <mxCell id="CMSIOsUlbhgRY1fr74lB-30" style="edgeStyle=orthogonalEdgeStyle;rounded=0;orthogonalLoop=1;jettySize=auto;html=1;entryX=0.5;entryY=0;entryDx=0;entryDy=0;entryPerimeter=0;" edge="1" parent="c1xDS-bG-x7jauQN-Ohu-13" source="CMSIOsUlbhgRY1fr74lB-28" target="c1xDS-bG-x7jauQN-Ohu-34">
          <mxGeometry relative="1" as="geometry" />
        </mxCell>
        <mxCell id="CMSIOsUlbhgRY1fr74lB-31" style="edgeStyle=orthogonalEdgeStyle;rounded=0;orthogonalLoop=1;jettySize=auto;html=1;entryX=0.5;entryY=0;entryDx=0;entryDy=0;entryPerimeter=0;" edge="1" parent="c1xDS-bG-x7jauQN-Ohu-13" source="c1xDS-bG-x7jauQN-Ohu-34" target="CMSIOsUlbhgRY1fr74lB-29">
          <mxGeometry relative="1" as="geometry" />
        </mxCell>
        <mxCell id="CMSIOsUlbhgRY1fr74lB-33" style="edgeStyle=orthogonalEdgeStyle;rounded=0;orthogonalLoop=1;jettySize=auto;html=1;entryX=0.5;entryY=0;entryDx=0;entryDy=0;entryPerimeter=0;" edge="1" parent="c1xDS-bG-x7jauQN-Ohu-13" source="CMSIOsUlbhgRY1fr74lB-29" target="c1xDS-bG-x7jauQN-Ohu-37">
          <mxGeometry relative="1" as="geometry" />
        </mxCell>
        <mxCell id="c1xDS-bG-x7jauQN-Ohu-14" value="Caja" style="swimlane;html=1;startSize=20;" parent="c1xDS-bG-x7jauQN-Ohu-10" vertex="1">
          <mxGeometry x="757" y="20" width="160" height="860" as="geometry">
            <mxRectangle x="240" y="20" width="40" height="460" as="alternateBounds" />
          </mxGeometry>
        </mxCell>
        <mxCell id="c1xDS-bG-x7jauQN-Ohu-50" value="Recibir pago del Cliente" style="points=[[0.25,0,0],[0.5,0,0],[0.75,0,0],[1,0.25,0],[1,0.5,0],[1,0.75,0],[0.75,1,0],[0.5,1,0],[0.25,1,0],[0,0.75,0],[0,0.5,0],[0,0.25,0]];shape=mxgraph.bpmn.task;whiteSpace=wrap;rectStyle=rounded;size=10;html=1;container=1;expand=0;collapsible=0;taskMarker=abstract;fontSize=9;" parent="c1xDS-bG-x7jauQN-Ohu-14" vertex="1">
          <mxGeometry x="30" y="90" width="100" height="20" as="geometry" />
        </mxCell>
        <mxCell id="CMSIOsUlbhgRY1fr74lB-45" value="" style="points=[[0.145,0.145,0],[0.5,0,0],[0.855,0.145,0],[1,0.5,0],[0.855,0.855,0],[0.5,1,0],[0.145,0.855,0],[0,0.5,0]];shape=mxgraph.bpmn.event;html=1;verticalLabelPosition=bottom;labelBackgroundColor=#ffffff;verticalAlign=top;align=center;perimeter=ellipsePerimeter;outlineConnect=0;aspect=fixed;outline=standard;symbol=general;" vertex="1" parent="c1xDS-bG-x7jauQN-Ohu-14">
          <mxGeometry x="67" y="34" width="26" height="26" as="geometry" />
        </mxCell>
        <mxCell id="CMSIOsUlbhgRY1fr74lB-46" style="edgeStyle=orthogonalEdgeStyle;rounded=0;orthogonalLoop=1;jettySize=auto;html=1;entryX=0.5;entryY=0;entryDx=0;entryDy=0;entryPerimeter=0;" edge="1" parent="c1xDS-bG-x7jauQN-Ohu-14" source="CMSIOsUlbhgRY1fr74lB-45" target="c1xDS-bG-x7jauQN-Ohu-50">
          <mxGeometry relative="1" as="geometry" />
        </mxCell>
        <mxCell id="CMSIOsUlbhgRY1fr74lB-47" value="Termino su consumo" style="points=[[0.145,0.145,0],[0.5,0,0],[0.855,0.145,0],[1,0.5,0],[0.855,0.855,0],[0.5,1,0],[0.145,0.855,0],[0,0.5,0]];shape=mxgraph.bpmn.event;html=1;verticalLabelPosition=bottom;labelBackgroundColor=#ffffff;verticalAlign=top;align=center;perimeter=ellipsePerimeter;outlineConnect=0;aspect=fixed;outline=end;symbol=message;fontSize=9;labelPosition=center;" vertex="1" parent="c1xDS-bG-x7jauQN-Ohu-14">
          <mxGeometry x="70" y="730" width="20" height="20" as="geometry" />
        </mxCell>
        <mxCell id="CMSIOsUlbhgRY1fr74lB-48" style="edgeStyle=orthogonalEdgeStyle;rounded=0;orthogonalLoop=1;jettySize=auto;html=1;entryX=0.5;entryY=0;entryDx=0;entryDy=0;entryPerimeter=0;" edge="1" parent="c1xDS-bG-x7jauQN-Ohu-14" source="c1xDS-bG-x7jauQN-Ohu-50" target="CMSIOsUlbhgRY1fr74lB-47">
          <mxGeometry relative="1" as="geometry" />
        </mxCell>
        <mxCell id="CMSIOsUlbhgRY1fr74lB-56" value="" style="points=[[0.145,0.145,0],[0.5,0,0],[0.855,0.145,0],[1,0.5,0],[0.855,0.855,0],[0.5,1,0],[0.145,0.855,0],[0,0.5,0]];shape=mxgraph.bpmn.event;html=1;verticalLabelPosition=bottom;labelBackgroundColor=#ffffff;verticalAlign=top;align=center;perimeter=ellipsePerimeter;outlineConnect=0;aspect=fixed;outline=end;symbol=terminate;" vertex="1" parent="c1xDS-bG-x7jauQN-Ohu-14">
          <mxGeometry x="70" y="810" width="20" height="20" as="geometry" />
        </mxCell>
        <mxCell id="CMSIOsUlbhgRY1fr74lB-57" style="edgeStyle=orthogonalEdgeStyle;rounded=0;orthogonalLoop=1;jettySize=auto;html=1;entryX=0.5;entryY=0;entryDx=0;entryDy=0;entryPerimeter=0;" edge="1" parent="c1xDS-bG-x7jauQN-Ohu-14" source="CMSIOsUlbhgRY1fr74lB-47" target="CMSIOsUlbhgRY1fr74lB-56">
          <mxGeometry relative="1" as="geometry" />
        </mxCell>
        <mxCell id="CMSIOsUlbhgRY1fr74lB-13" style="edgeStyle=orthogonalEdgeStyle;rounded=0;orthogonalLoop=1;jettySize=auto;html=1;entryX=0;entryY=0.5;entryDx=0;entryDy=0;entryPerimeter=0;" edge="1" parent="c1xDS-bG-x7jauQN-Ohu-10" source="CMSIOsUlbhgRY1fr74lB-11" target="c1xDS-bG-x7jauQN-Ohu-21">
          <mxGeometry relative="1" as="geometry" />
        </mxCell>
        <mxCell id="CMSIOsUlbhgRY1fr74lB-18" value="Si" style="edgeStyle=orthogonalEdgeStyle;rounded=0;orthogonalLoop=1;jettySize=auto;html=1;entryX=0.5;entryY=1;entryDx=0;entryDy=0;entryPerimeter=0;" edge="1" parent="c1xDS-bG-x7jauQN-Ohu-10" source="c1xDS-bG-x7jauQN-Ohu-22" target="CMSIOsUlbhgRY1fr74lB-11">
          <mxGeometry relative="1" as="geometry" />
        </mxCell>
        <mxCell id="CMSIOsUlbhgRY1fr74lB-22" style="edgeStyle=orthogonalEdgeStyle;rounded=0;orthogonalLoop=1;jettySize=auto;html=1;entryX=0;entryY=0.5;entryDx=0;entryDy=0;entryPerimeter=0;" edge="1" parent="c1xDS-bG-x7jauQN-Ohu-10" source="CMSIOsUlbhgRY1fr74lB-19" target="CMSIOsUlbhgRY1fr74lB-21">
          <mxGeometry relative="1" as="geometry" />
        </mxCell>
        <mxCell id="CMSIOsUlbhgRY1fr74lB-34" value="Si" style="edgeStyle=orthogonalEdgeStyle;rounded=0;orthogonalLoop=1;jettySize=auto;html=1;entryX=1;entryY=0.5;entryDx=0;entryDy=0;entryPerimeter=0;" edge="1" parent="c1xDS-bG-x7jauQN-Ohu-10" source="c1xDS-bG-x7jauQN-Ohu-37" target="CMSIOsUlbhgRY1fr74lB-32">
          <mxGeometry relative="1" as="geometry" />
        </mxCell>
        <mxCell id="CMSIOsUlbhgRY1fr74lB-42" style="edgeStyle=orthogonalEdgeStyle;rounded=0;orthogonalLoop=1;jettySize=auto;html=1;entryX=0;entryY=0.5;entryDx=0;entryDy=0;entryPerimeter=0;" edge="1" parent="c1xDS-bG-x7jauQN-Ohu-10" source="CMSIOsUlbhgRY1fr74lB-26" target="CMSIOsUlbhgRY1fr74lB-28">
          <mxGeometry relative="1" as="geometry" />
        </mxCell>
        <mxCell id="CMSIOsUlbhgRY1fr74lB-52" style="edgeStyle=orthogonalEdgeStyle;rounded=0;orthogonalLoop=1;jettySize=auto;html=1;entryX=1;entryY=0.5;entryDx=0;entryDy=0;entryPerimeter=0;" edge="1" parent="c1xDS-bG-x7jauQN-Ohu-10" source="CMSIOsUlbhgRY1fr74lB-47" target="CMSIOsUlbhgRY1fr74lB-51">
          <mxGeometry relative="1" as="geometry" />
        </mxCell>
      </root>
    </mxGraphModel>
  </diagram>
</mxfile>
